<svg id="Layer_1" data-name="Layer 1" xmlns="http://www.w3.org/2000/svg" viewBox="0 0 216.9 62.42"><defs><style>.cls-1{fill:#e36d00;}.cls-2{fill:#1d1e1c;}.cls-3{fill:#e56606;}</style></defs><title>modelon-logo-color</title><path class="cls-1" d="M141.26,199.75a17.08,17.08,0,0,0-.28,3.94c-4,2.85-7.32,4.78-11.92,4.82-9.33.08-1-19.55-2.18-25.56-.13-.68-1-.54-1.45,0-5.22,6.46-10.41,18.75-16.88,25.34a6.47,6.47,0,0,1-5,2.36c-6.28,0-5.72-8.07-4.73-12.46,2.08-9.22,11.07-32.09,10.64-39.3,0-.82-1.07-.78-1.49-.26-8.45,10.54-30.72,53.22-30.72,53.22l-6,.45s26.19-51.79,36.79-59.87c4.52-3.45,9.91-4,10.9,2,1.89,11.53-9.72,31.77-11,45.18-.08.74.51,1.24,1,.75,2-2.07,11.25-19.74,16.2-23.51,4.51-3.44,9.27-3.77,9.85,4.76.39,5.66-3.06,18.38-2.07,20,1.28,2.11,3.78.61,6.56-.91.59-.32,1.24-.69,1.76-1Z" transform="translate(-71.3 -149.88)"/><path class="cls-2" d="M158.65,184c7.4,0,10.26,2.53,7.75,12-2.29,8.7-7.26,12.3-14.81,12.3-7.26,0-10.63-1.64-7.85-12.16C146,187.61,151.25,184,158.65,184Zm-6.06,21.09c3,0,5.67-1.73,7.6-9,2-7.44.69-8.75-2.63-8.75-3.1,0-5.72,1.64-7.64,8.94C147.88,204,149.34,205.1,152.59,205.1Z" transform="translate(-71.3 -149.88)"/><path class="cls-2" d="M189.88,175.22c.45-1.73,1.51-1.73,6.16-1.73l-8.83,33.44a37.46,37.46,0,0,1-10.45,1.4c-6.13,0-11.18-1.17-8.5-11.32,2.44-9.25,8.23-13,14.29-13a9.51,9.51,0,0,1,4.76.94Zm-3.36,12.72a5.59,5.59,0,0,0-3.09-.61c-3.1,0-6.62,1.59-8.64,9.26-1.86,7-.23,8.33,3.08,8.33a11.62,11.62,0,0,0,4.35-.71Z" transform="translate(-71.3 -149.88)"/><path class="cls-2" d="M215.46,191.54a25.18,25.18,0,0,1-2.39,6.08,140.35,140.35,0,0,1-14.93.75c-1,5,.6,6.26,4.9,6.26a27.16,27.16,0,0,0,8.42-1.44,6.28,6.28,0,0,1-.18,2.57c-.39,1.45-5.13,2.57-10.41,2.57-6.56,0-10.8-1.82-8.39-10.94,3.09-11.69,9.81-13.38,16-13.38C214.41,184,216.79,186.49,215.46,191.54ZM199,195.28a59.62,59.62,0,0,0,9.65-.51,10.9,10.9,0,0,0,1.09-2.81c.82-3.36.24-4.63-2.79-4.63S201.12,189,199,195.28Z" transform="translate(-71.3 -149.88)"/><path class="cls-2" d="M219.66,207.11c-.2.75-.2.75-5.91.75l8.62-32.64c.46-1.73,1.59-1.73,6.17-1.73Z" transform="translate(-71.3 -149.88)"/><path class="cls-2" d="M239.93,184c7.4,0,10.26,2.53,7.75,12-2.29,8.7-7.26,12.3-14.81,12.3-7.26,0-10.63-1.64-7.85-12.16C227.28,187.61,232.53,184,239.93,184Zm-6.06,21.09c3,0,5.67-1.73,7.6-9,2-7.44.68-8.75-2.63-8.75-3.1,0-5.71,1.64-7.64,8.94C229.16,204,230.63,205.1,233.87,205.1Z" transform="translate(-71.3 -149.88)"/><path class="cls-2" d="M252.76,185.61a50.63,50.63,0,0,1,11.56-1.6c7.4,0,9.48,1.73,8.29,6.27l-4.45,16.83c-.2.75-.34.75-6.12.75l4.35-16.46c.78-2.94.37-4.07-3.16-4.07a19.16,19.16,0,0,0-5.44.85l-5,18.93c-.21.75-.35.75-5.92.75Z" transform="translate(-71.3 -149.88)"/><polygon class="cls-3" points="216.9 54.78 216.32 57.03 198.6 57.88 199.61 53.94 216.9 54.78"/></svg>